<?xml version="1.0"?>
<svg xmlns="http://www.w3.org/2000/svg" xmlns:xlink="http://www.w3.org/1999/xlink" xmlns:svgjs="http://svgjs.com/svgjs" version="1.1" width="512" height="512" x="0" y="0" viewBox="0 0 64 64" style="enable-background:new 0 0 512 512" xml:space="preserve" class=""><g><g xmlns="http://www.w3.org/2000/svg" id="Icons"><g><g><g><path d="m6 54h52c1.105 0 2-.895 2-2v-36c0-1.105-.895-2-2-2h-52c-1.105 0-2 .895-2 2v36c0 1.105.895 2 2 2z" fill="#318c17" data-original="#0a5078" style="" class=""/></g><g><path d="m9 50h46c.552 0 1-.448 1-1v-30c0-.552-.448-1-1-1h-46c-.552 0-1 .448-1 1v30c0 .552.448 1 1 1z" fill="#d1d1d1" data-original="#00a0c8" style="" class=""/></g><g><path d="m28 54h8v4h-8z" fill="#318c17" transform="matrix(-1 0 0 -1 64 112)" data-original="#0a5078" style="" class=""/></g><g><path d="m20 60h24c0-1.105-.895-2-2-2h-20c-1.105 0-2 .895-2 2z" fill="#318c17" data-original="#0a5078" style="" class=""/></g><g><path d="m28 54h8v1h-8z" fill="#00325a" transform="matrix(-1 0 0 -1 64 109)" data-original="#00325a" style=""/></g></g><g><circle cx="32" cy="27" fill="#aab9bd" r="22" data-original="#0082aa" style="" class=""/></g><g><circle cx="32" cy="26" fill="#37562f" r="22" data-original="#c80a50" style="" class=""/></g><g><circle cx="32" cy="26" fill="#ffcd26" r="20" data-original="#fab400" style="" class=""/></g><g><path d="m46.707 30.293-2-2c-.187-.188-.442-.293-.707-.293h-4v-5h2c.265 0 .52-.105.707-.293l2-2c.391-.391.391-1.023 0-1.414s-1.023-.391-1.414 0l-1.707 1.707h-1.586c0-2.209-1.791-4-4-4 0-.742-.202-1.436-.554-2.032l2.261-2.261c.391-.391.391-1.023 0-1.414s-1.023-.391-1.414 0l-2.261 2.261c-.596-.352-1.29-.554-2.032-.554s-1.436.202-2.032.554l-2.261-2.261c-.391-.391-1.023-.391-1.414 0s-.391 1.023 0 1.414l2.261 2.261c-.352.596-.554 1.29-.554 2.032-2.209 0-4 1.791-4 4h-1.586l-1.707-1.707c-.391-.391-1.023-.391-1.414 0s-.391 1.023 0 1.414l2 2c.187.188.442.293.707.293h2v5h-4c-.265 0-.52.105-.707.293l-2 2c-.391.391-.391 1.023 0 1.414.195.195.451.293.707.293s.512-.098.707-.293l1.707-1.707h3.586c.021 0 .041-.001.062-.002.182 1.461.758 2.8 1.619 3.908l-2.388 2.388c-.188.186-.293.441-.293.706v2c0 .552.448 1 1 1s1-.448 1-1v-1.586l2.095-2.095c1.354 1.054 3.056 1.681 4.905 1.681s3.551-.627 4.905-1.68l2.095 2.094v1.586c0 .552.448 1 1 1s1-.448 1-1v-2c0-.265-.105-.52-.293-.707l-2.388-2.388c.861-1.107 1.437-2.446 1.619-3.908.021.002.041.003.062.003h3.586l1.707 1.707c.195.195.451.293.707.293s.512-.098.707-.293c.391-.391.391-1.023 0-1.414z" fill="#dc9600" data-original="#dc9600" style="" class=""/></g><g><path d="m32 7c10.879 0 19.728 8.685 19.994 19.5.004-.166.006-.333.006-.5 0-11.046-8.954-20-20-20s-20 8.954-20 20c0 .167.002.334.006.5.266-10.815 9.115-19.5 19.994-19.5z" fill="#dc9600" data-original="#dc9600" style="" class=""/></g><g><g><path d="m32 17c-.256 0-.512-.098-.707-.293l-5-5c-.391-.391-.391-1.023 0-1.414s1.023-.391 1.414 0l4.293 4.293 4.293-4.293c.391-.391 1.023-.391 1.414 0s.391 1.023 0 1.414l-5 5c-.195.195-.451.293-.707.293z" fill="#00325a" data-original="#00325a" style=""/></g><g><path d="m24 39c-.552 0-1-.448-1-1v-2c0-.265.105-.52.293-.707l4-4c.391-.391 1.023-.391 1.414 0s.391 1.023 0 1.414l-3.707 3.707v1.586c0 .552-.448 1-1 1z" fill="#318c17" data-original="#0a5078" style="" class=""/></g><g><path d="m18 31c-.256 0-.512-.098-.707-.293-.391-.391-.391-1.023 0-1.414l2-2c.187-.188.442-.293.707-.293h4c.552 0 1 .448 1 1s-.448 1-1 1h-3.586l-1.707 1.707c-.195.195-.451.293-.707.293z" fill="#318c17" data-original="#0a5078" style="" class=""/></g><g><path d="m40 39c-.552 0-1-.448-1-1v-1.586l-3.707-3.707c-.391-.391-.391-1.023 0-1.414s1.023-.391 1.414 0l4 4c.188.187.293.442.293.707v2c0 .552-.448 1-1 1z" fill="#318c17" data-original="#0a5078" style="" class=""/></g><g><path d="m46 31c-.256 0-.512-.098-.707-.293l-1.707-1.707h-3.586c-.552 0-1-.448-1-1s.448-1 1-1h4c.265 0 .52.105.707.293l2 2c.391.391.391 1.023 0 1.414-.195.195-.451.293-.707.293z" fill="#318c17" data-original="#0a5078" style="" class=""/></g><g><path d="m26 22h-4c-.265 0-.52-.105-.707-.293l-2-2c-.391-.391-.391-1.023 0-1.414s1.023-.391 1.414 0l1.707 1.707h3.586c.552 0 1 .448 1 1s-.448 1-1 1z" fill="#318c17" data-original="#0a5078" style="" class=""/></g><g><path d="m42 22h-4c-.552 0-1-.448-1-1s.448-1 1-1h3.586l1.707-1.707c.391-.391 1.023-.391 1.414 0s.391 1.023 0 1.414l-2 2c-.187.188-.442.293-.707.293z" fill="#318c17" data-original="#0a5078" style="" class=""/></g><g><circle cx="32" cy="16" fill="#318c17" r="4" data-original="#0a5078" style="" class=""/></g><g><path d="m32 36c-4.418 0-8-3.582-8-8v-8c0-2.209 1.791-4 4-4h8c2.209 0 4 1.791 4 4v8c0 4.418-3.582 8-8 8z" fill="#d1d1d1" data-original="#00a0c8" style="" class=""/></g><g><path d="m33 16h-2v19.938c.328.041.661.062 1 .062s.672-.021 1-.062z" fill="#aab9bd" data-original="#0082aa" style="" class=""/></g></g></g></g></g></svg>
