<?xml version="1.0" encoding="UTF-8"?>
<!DOCTYPE svg PUBLIC "-//W3C//DTD SVG 1.1//EN" "http://www.w3.org/Graphics/SVG/1.1/DTD/svg11.dtd">
<!-- Creator: CorelDRAW X7 -->
<svg xmlns="http://www.w3.org/2000/svg" xml:space="preserve" width="0.123587in" height="0.134031in" version="1.1" style="shape-rendering:geometricPrecision; text-rendering:geometricPrecision; image-rendering:optimizeQuality; fill-rule:evenodd; clip-rule:evenodd"
viewBox="0 0 1 1"
 xmlns:xlink="http://www.w3.org/1999/xlink">
 <defs>
  <style type="text/css">
   <![CDATA[
    .fil1 {fill:white}
    .fil0 {fill:url(#id2)}
   ]]>
  </style>
    <clipPath id="id0">
     <path d="M0 0l0 0 0 0 0 0 0 0z"/>
    </clipPath>
   <clipPath id="id1">
    <rect y="1" width="0.436204" height="0.0760615"/>
   </clipPath>
  <linearGradient id="id2" gradientUnits="userSpaceOnUse" x1="0.315233" y1="0" x2="0.315233" y2="0.62456">
   <stop offset="0" style="stop-opacity:1; stop-color:red"/>
   <stop offset="0.85098" style="stop-opacity:1; stop-color:#CB0000"/>
   <stop offset="1" style="stop-opacity:1; stop-color:#960000"/>
  </linearGradient>
 </defs>
 <g id="Layer_x0020_1">
  <metadata id="CorelCorpID_0Corel-Layer"/>
  <path class="fil0" d="M1 0c0,0 -1,0 -1,0 0,0 0,0 0,0 0,0 0,1 0,1 0,0 1,-1 1,-1z"/>
  <g id="_669402184">
   <g style="clip-path:url(#id0)">
    <image x="0" y="0" width="0.351908" height="0.357431" xlink:href="cross_Images\cross_ImgID1.png"/>
   </g>
  </g>
  <polygon class="fil1" points="0,0 0,0 0,0 0,0 0,0 0,0 0,0 0,0 0,0 0,0 0,0 0,0 "/>
  <g style="clip-path:url(#id1)">
   <image x="0" y="1" width="0.436184" height="0.0760414" xlink:href="cross_Images\cross_ImgID2.png"/>
  </g>
 </g>
</svg>
