<?xml version="1.0"?>
<svg xmlns="http://www.w3.org/2000/svg" xmlns:xlink="http://www.w3.org/1999/xlink" xmlns:svgjs="http://svgjs.com/svgjs" version="1.1" width="512" height="512" x="0" y="0" viewBox="0 0 512 512.00045" style="enable-background:new 0 0 512 512" xml:space="preserve" class=""><g transform="matrix(1,-2.465190328815662e-32,2.465190328815662e-32,1,-5.684341886080802e-14,0)"><path xmlns="http://www.w3.org/2000/svg" d="m389.960938 15v346.964844l-49.496094 59.992187h-340.464844v-361.964843c0-32.992188 27-59.992188 59.996094-59.992188h314.964844c8.402343 0 15 6.597656 15 15zm0 0" fill="#74a965" data-original="#ff9f00" style="" class=""/><path xmlns="http://www.w3.org/2000/svg" d="m389.960938 15v346.964844l-49.496094 59.992187h-85.488282v-421.957031h119.984376c8.402343 0 15 6.597656 15 15zm0 0" fill="#318c17" data-original="#ff7816" style="" class=""/><path xmlns="http://www.w3.org/2000/svg" d="m299.96875 225.976562c0 19.5-12.597656 35.996094-29.996094 42.296876v16.5c0 8.394531-6.597656 14.996093-14.996094 14.996093-8.402343 0-15-6.601562-15-14.996093v-16.800782c-9.898437-3.597656-18.597656-10.199218-23.996093-19.5-4.203125-7.199218-1.800781-16.195312 5.398437-20.394531 7.199219-4.203125 16.496094-1.800781 20.695313 5.398437 2.699219 4.5 7.5 7.5 12.902343 7.5 8.398438 0 14.996094-6.601562 14.996094-15 0-8.398437-6.597656-15-14.996094-15-24.898437 0-44.996093-20.09375-44.996093-44.992187 0-19.5 12.597656-36 29.996093-42.296875v-17.097656c0-8.402344 6.597657-15 15-15 8.398438 0 14.996094 6.597656 14.996094 15v17.398437c9.902344 3.597657 18.597656 10.199219 24 19.496094 4.199219 7.199219 1.796875 16.199219-5.402344 20.398437-7.199218 4.203126-16.496093 1.800782-20.695312-5.398437-2.699219-4.5-7.5-7.5-12.898438-7.5-8.402343 0-15 6.597656-15 15 0 8.398437 6.597657 14.996094 15 14.996094 24.894532 0 44.992188 20.097656 44.992188 44.996093zm0 0" fill="#2f5e23" data-original="#ececf1" style="" class=""/><path xmlns="http://www.w3.org/2000/svg" d="m148.988281 421.957031c.582031-1.601562.996094-3.292969.996094-5.097656v-416.859375h-89.988281v419.554688c0 .835937.351562 1.59375.488281 2.402343zm0 0" fill="#318c17" data-original="#ff7816" style="" class=""/><path xmlns="http://www.w3.org/2000/svg" d="m299.96875 225.976562c0 19.5-12.597656 35.996094-29.996094 42.296876v16.5c0 8.394531-6.597656 14.996093-14.996094 14.996093v-58.792969c8.398438 0 14.996094-6.597656 14.996094-15 0-8.398437-6.597656-14.996093-14.996094-14.996093v-30c24.894532 0 44.992188 20.097656 44.992188 44.996093zm0 0" fill="#2f5e23" data-original="#d7e9fd" style="" class=""/><path xmlns="http://www.w3.org/2000/svg" d="m254.976562 150.984375v-59.390625c8.398438 0 14.996094 6.597656 14.996094 14.996094v17.398437c9.902344 3.597657 18.597656 10.199219 24 19.5 4.199219 7.199219 1.796875 16.195313-5.402344 20.394531-7.199218 4.203126-16.496093 1.800782-20.695312-5.398437-2.703125-4.5-7.5-7.5-12.898438-7.5zm0 0" fill="#2f5e23" data-original="#d7e9fd" style="" class=""/><path xmlns="http://www.w3.org/2000/svg" d="m389.960938 391.960938-26.398438 31.796874 26.398438 28.195313v15c0 8.402344-6.597657 15-15 15h-314.964844c-32.996094 0-59.996094-27-59.996094-59.996094 0-32.996093 27-59.992187 59.996094-59.992187h329.964844zm0 0" fill="#ffcd26" data-original="#ff5b5b" style="" class=""/><path xmlns="http://www.w3.org/2000/svg" d="m389.960938 391.960938-26.398438 31.796874 26.398438 28.195313v15c0 8.402344-6.597657 15-15 15h-119.984376v-119.988281h134.984376zm0 0" fill="#ffcd26" data-original="#ff3980" style="" class=""/><path xmlns="http://www.w3.org/2000/svg" d="m389.960938 391.960938v59.992187h-329.964844c-16.5 0-30-13.496094-30-29.996094 0-16.496093 13.5-29.996093 30-29.996093zm0 0" fill="#2f5e23" data-original="#ececf1" style="" class=""/><path xmlns="http://www.w3.org/2000/svg" d="m254.976562 391.960938h134.984376v59.992187h-134.984376zm0 0" fill="#2f5e23" data-original="#d7e9fd" style="" class=""/><path xmlns="http://www.w3.org/2000/svg" d="m194.980469 391.960938v104.988281c0 5.402343 3 10.5 7.800781 13.199219 5.097656 2.703124 10.796875 2.402343 15.597656-.601563l36.597656-24.597656 36.59375 24.597656c5.101563 3.003906 10.199219 3.300781 15.597657.601563 4.800781-2.699219 7.800781-7.796876 7.800781-13.199219v-104.988281zm0 0" fill="#398525" data-original="#4a696f" style="" class=""/><path xmlns="http://www.w3.org/2000/svg" d="m314.96875 391.960938v104.988281c0 5.402343-3 10.5-7.800781 13.199219-5.398438 2.703124-10.496094 2.402343-15.597657-.601563l-36.59375-24.597656v-92.988281zm0 0" fill="#73af63" data-original="#3e5959" style="" class=""/></g></svg>
