<?xml version="1.0"?>
<svg xmlns="http://www.w3.org/2000/svg" xmlns:xlink="http://www.w3.org/1999/xlink" xmlns:svgjs="http://svgjs.com/svgjs" version="1.1" width="512" height="512" x="0" y="0" viewBox="0 0 468.293 468.293" style="enable-background:new 0 0 512 512" xml:space="preserve" class=""><g>
<path xmlns="http://www.w3.org/2000/svg" style="" d="M408.976,468.293H59.317c-10.345,0-18.732-8.386-18.732-18.732V18.732  C40.585,8.386,48.972,0,59.317,0h349.659c10.345,0,18.732,8.386,18.732,18.732v430.829  C427.707,459.906,419.321,468.293,408.976,468.293z" fill="#000000" data-original="#1c75a1" class=""/>
<rect xmlns="http://www.w3.org/2000/svg" x="71.805" y="367.641" style="" width="237.893" height="64.343" fill="#318c17" data-original="#d5d6db" class=""/>
<rect xmlns="http://www.w3.org/2000/svg" x="332.144" y="367.641" style="" width="64.343" height="64.343" fill="#8fcf7c" data-original="#44c4a1" class=""/>
<g xmlns="http://www.w3.org/2000/svg">
	<rect x="71.805" y="278.353" style="" width="64.343" height="64.343" fill="#318c17" data-original="#d5d6db" class=""/>
	<rect x="158.583" y="278.353" style="" width="64.343" height="64.343" fill="#318c17" data-original="#d5d6db" class=""/>
	<rect x="245.36" y="278.353" style="" width="64.343" height="64.343" fill="#318c17" data-original="#d5d6db" class=""/>
</g>
<rect xmlns="http://www.w3.org/2000/svg" x="332.144" y="278.353" style="" width="64.343" height="64.343" fill="#8fcf7c" data-original="#e56353" class=""/>
<path xmlns="http://www.w3.org/2000/svg" style="" d="M71.805,48.763v73.425c0,6.897,5.591,12.488,12.488,12.488h38.293l180.93-98.401H84.293  C77.396,36.275,71.805,41.866,71.805,48.763z" fill="#318c17" data-original="#3ea69b" class=""/>
<path xmlns="http://www.w3.org/2000/svg" style="" d="M384,36.275h-80.484l-180.93,98.401H384c6.897,0,12.488-5.591,12.488-12.488V48.763  C396.488,41.866,390.897,36.275,384,36.275z" fill="#8fcf7c" data-original="#44c4a1" class=""/>
<g xmlns="http://www.w3.org/2000/svg">
	<rect x="71.805" y="189.028" style="" width="64.343" height="64.343" fill="#318c17" data-original="#d5d6db" class=""/>
	<rect x="158.583" y="189.028" style="" width="64.343" height="64.343" fill="#318c17" data-original="#d5d6db" class=""/>
	<rect x="245.36" y="189.028" style="" width="64.343" height="64.343" fill="#318c17" data-original="#d5d6db" class=""/>
</g>
<rect xmlns="http://www.w3.org/2000/svg" x="332.144" y="189.028" style="" width="64.343" height="64.343" fill="#fcd462" data-original="#fcd462" class=""/>
<g xmlns="http://www.w3.org/2000/svg">
	<rect x="71.805" y="241.452" style="" width="64.343" height="11.913" fill="#8fcf7c" data-original="#e1e6e9" class=""/>
	<rect x="158.583" y="241.452" style="" width="64.343" height="11.913" fill="#8fcf7c" data-original="#e1e6e9" class=""/>
	<rect x="245.36" y="241.452" style="" width="64.343" height="11.913" fill="#8fcf7c" data-original="#e1e6e9" class=""/>
</g>
<rect xmlns="http://www.w3.org/2000/svg" x="332.144" y="241.452" style="" width="64.343" height="11.913" fill="#f6c358" data-original="#f6c358" class=""/>
<g xmlns="http://www.w3.org/2000/svg">
	<rect x="71.805" y="330.802" style="" width="64.343" height="11.913" fill="#8fcf7c" data-original="#e1e6e9" class=""/>
	<rect x="158.583" y="330.802" style="" width="64.343" height="11.913" fill="#8fcf7c" data-original="#e1e6e9" class=""/>
	<rect x="245.36" y="330.802" style="" width="64.343" height="11.913" fill="#8fcf7c" data-original="#e1e6e9" class=""/>
</g>
<rect xmlns="http://www.w3.org/2000/svg" x="332.144" y="330.802" style="" width="64.343" height="11.913" fill="#318c17" data-original="#d15241" class=""/>
<rect xmlns="http://www.w3.org/2000/svg" x="71.805" y="420.102" style="" width="237.893" height="11.913" fill="#318c17" data-original="#27a2db" class=""/>
<rect xmlns="http://www.w3.org/2000/svg" x="332.144" y="420.102" style="" width="64.343" height="11.913" fill="#318c17" data-original="#3ea69b" class=""/>
<g xmlns="http://www.w3.org/2000/svg">
</g>
<g xmlns="http://www.w3.org/2000/svg">
</g>
<g xmlns="http://www.w3.org/2000/svg">
</g>
<g xmlns="http://www.w3.org/2000/svg">
</g>
<g xmlns="http://www.w3.org/2000/svg">
</g>
<g xmlns="http://www.w3.org/2000/svg">
</g>
<g xmlns="http://www.w3.org/2000/svg">
</g>
<g xmlns="http://www.w3.org/2000/svg">
</g>
<g xmlns="http://www.w3.org/2000/svg">
</g>
<g xmlns="http://www.w3.org/2000/svg">
</g>
<g xmlns="http://www.w3.org/2000/svg">
</g>
<g xmlns="http://www.w3.org/2000/svg">
</g>
<g xmlns="http://www.w3.org/2000/svg">
</g>
<g xmlns="http://www.w3.org/2000/svg">
</g>
<g xmlns="http://www.w3.org/2000/svg">
</g>
</g></svg>
