<?xml version="1.0"?>
<svg xmlns="http://www.w3.org/2000/svg" xmlns:xlink="http://www.w3.org/1999/xlink" xmlns:svgjs="http://svgjs.com/svgjs" version="1.1" width="512" height="512" x="0" y="0" viewBox="0 0 512 512" style="enable-background:new 0 0 512 512" xml:space="preserve" class=""><g><path xmlns="http://www.w3.org/2000/svg" d="m349 482h-186c-4.953125 0-9.589844-2.445312-12.386719-6.535156-2.792969-4.09375-3.386719-9.300782-1.589843-13.914063l39-100c2.246093-5.757812 7.792968-9.550781 13.976562-9.550781h108c6.179688 0 11.730469 3.792969 13.976562 9.550781l39 100c1.796876 4.613281 1.203126 9.820313-1.589843 13.914063-2.796875 4.089844-7.433594 6.535156-12.386719 6.535156zm0 0" fill="#abb2b9" data-original="#abb2b9" style=""/><path xmlns="http://www.w3.org/2000/svg" d="m362.976562 461.550781-39-100c-2.246093-5.757812-7.792968-9.550781-13.976562-9.550781h-54v130h93c4.953125 0 9.589844-2.445312 12.386719-6.535156 2.792969-4.09375 3.386719-9.300782 1.589843-13.914063zm0 0" fill="#969fa7" data-original="#969fa7" style=""/><path xmlns="http://www.w3.org/2000/svg" d="m477 410h-442c-19.328125 0-35-15.671875-35-35v-340c0-19.328125 15.671875-35 35-35h442c19.328125 0 35 15.671875 35 35v340c0 19.328125-15.671875 35-35 35zm0 0" fill="#d9e7f3" data-original="#d9e7f3" style="" class=""/><path xmlns="http://www.w3.org/2000/svg" d="m477 0h-221v410h221c19.328125 0 35-15.671875 35-35v-340c0-19.328125-15.671875-35-35-35zm0 0" fill="#c8d4df" data-original="#c8d4df" style="" class=""/><path xmlns="http://www.w3.org/2000/svg" d="m477 0h-442c-19.328125 0-35 15.671875-35 35v300h512v-300c0-19.328125-15.671875-35-35-35zm0 0" fill="#318c17" data-original="#006eff" style="" class=""/><path xmlns="http://www.w3.org/2000/svg" d="m512 335v-300c0-19.328125-15.671875-35-35-35h-221v335zm0 0" fill="#1f7806" data-original="#005adc" style="" class=""/><path xmlns="http://www.w3.org/2000/svg" d="m147 190h16.1875c3.753906 23.5625 16.203125 44.261719 33.941406 58.699219l-8.121094 14.0625c-4.140624 7.175781-1.683593 16.347656 5.492188 20.492187 7.175781 4.140625 16.347656 1.683594 20.488281-5.492187l8.097657-14.023438c10.539062 4.039063 21.96875 6.261719 33.910156 6.261719.335937 0 .667968-.019531 1-.023438 11.582031-.121093 22.671875-2.3125 32.914062-6.238281l8.097656 14.023438c4.140626 7.175781 13.316407 9.632812 20.488282 5.492187 7.175781-4.144531 9.632812-13.316406 5.492187-20.492187l-8.121093-14.0625c17.742187-14.4375 30.1875-35.136719 33.941406-58.699219h16.191406c8.285156 0 15-6.71875 15-15 0-8.285156-6.714844-15-15-15h-16.1875c-3.753906-23.5625-16.203125-44.261719-33.941406-58.703125l8.121094-14.0625c4.140624-7.171875 1.683593-16.347656-5.492188-20.488281-2.359375-1.363282-4.941406-2.011719-7.484375-2.011719-5.183594 0-10.226563 2.691406-13.003906 7.5l-8.097657 14.027344c-10.242187-3.925781-21.332031-6.117188-32.910156-6.238281-.335937-.003907-.667968-.023438-1-.023438-11.945312 0-23.375 2.21875-33.914062 6.261719l-8.097656-14.027344c-2.777344-4.8125-7.820313-7.5-13.003907-7.5-2.542969 0-5.125.648437-7.484375 2.011719-7.175781 4.140625-9.632812 13.316406-5.492187 20.488281l8.121093 14.0625c-17.742187 14.4375-30.1875 35.140625-33.941406 58.703125h-16.191406c-8.285156 0-15 6.714844-15 15 0 8.28125 6.714844 15 15 15zm110-80c.335938 0 .664062.019531 1 .023438 35.378906.539062 64 29.46875 64 64.976562 0 35.503906-28.621094 64.433594-64 64.972656-.335938.007813-.664062.027344-1 .027344-35.839844 0-65-29.160156-65-65 0-35.84375 29.160156-65 65-65zm0 0" fill="#ffcd26" data-original="#ffd500" style="" class=""/><path xmlns="http://www.w3.org/2000/svg" d="m322 175c0 35.503906-28.621094 64.433594-64 64.972656v30.003906c11.578125-.121093 22.671875-2.3125 32.910156-6.238281l8.097656 14.023438c4.144532 7.175781 13.316407 9.632812 20.492188 5.492187 7.171875-4.144531 9.632812-13.316406 5.488281-20.492187l-8.117187-14.0625c17.738281-14.4375 30.1875-35.136719 33.9375-58.699219h16.191406c8.285156 0 15-6.71875 15-15 0-8.285156-6.714844-15-15-15h-16.1875c-3.753906-23.5625-16.203125-44.261719-33.941406-58.703125l8.121094-14.0625c4.140624-7.171875 1.683593-16.347656-5.492188-20.488281-2.359375-1.363282-4.941406-2.011719-7.484375-2.011719-5.183594 0-10.226563 2.691406-13.003906 7.5l-8.097657 14.027344c-10.242187-3.925781-21.332031-6.117188-32.910156-6.238281v30c35.375.539062 63.996094 29.46875 63.996094 64.976562zm0 0" fill="#f1bb04" data-original="#ffc300" style="" class=""/></g></svg>
