<?xml version="1.0"?>
<svg xmlns="http://www.w3.org/2000/svg" xmlns:xlink="http://www.w3.org/1999/xlink" xmlns:svgjs="http://svgjs.com/svgjs" version="1.1" width="512" height="512" x="0" y="0" viewBox="0 0 256 256" style="enable-background:new 0 0 512 512" xml:space="preserve" class=""><g><g xmlns="http://www.w3.org/2000/svg" id="Layer_58"><g><g><path d="m48.805 241.254 12.9 12.246h32.099c.875 0 1.301-1.068.667-1.67l-25.825-24.531c-.971-.922-1.712-2.06-2.162-3.321l-6.957-19.492-22.834 6.726 9.057 25.375c.633 1.776 1.681 3.376 3.055 4.667z" fill="#f9d0b4" data-original="#f9d0b4" style="" class=""/></g><g><path d="m207.195 241.322-12.9 12.246h-32.099c-.875 0-1.301-1.068-.667-1.67l25.825-24.531c.971-.922 1.712-2.06 2.162-3.321l6.957-19.492 22.834 6.726-9.057 25.375c-.633 1.776-1.681 3.376-3.055 4.667z" fill="#f9d0b4" data-original="#f9d0b4" style="" class=""/></g><g><path d="m128.001 2.5c-10.07 0-19.537 3.922-26.657 11.042-23.529 23.53-7.049 64.341 26.657 64.339 9.653-.001 19.308-3.676 26.657-11.024 23.525-23.527 7.048-64.357-26.657-64.357z" fill="#edf4fc" data-original="#edf4fc" style="" class=""/></g><g><path d="m137.27 41.308c-.617-.617-.617-1.618 0-2.235l8.111-8.111c.617-.617.617-1.618 0-2.236l-5.916-5.916c-.617-.617-1.618-.617-2.235 0l-8.111 8.111c-.617.617-1.618.617-2.235 0l-8.111-8.111c-.617-.617-1.618-.617-2.235 0l-5.916 5.916c-.617.617-.617 1.618 0 2.236l8.111 8.111c.617.617.617 1.618 0 2.235l-8.111 8.111c-.617.617-.617 1.618 0 2.236l5.916 5.916c.617.617 1.618.617 2.235 0l8.111-8.111c.617-.617 1.618-.617 2.235 0l8.111 8.111c.617.617 1.618.617 2.235 0l5.916-5.916c.617-.617.617-1.618 0-2.236z" fill="#318c17" data-original="#fc657e" style="" class=""/></g><g><g><g><path d="m73.096 25.85c-4.5-.8-8-4.3-8.9-8.7 0-.2-.4-.2-.4 0-.9 4.4-4.4 7.9-8.9 8.7-.2 0-.2.3 0 .4 4.5.8 8 4.3 8.9 8.7 0 .2.4.2.4 0 .9-4.4 4.4-7.9 8.9-8.7.2-.1.2-.4 0-.4z" fill="#f5c84c" data-original="#f5c84c" style=""/></g></g></g><g><g><g><path d="m102.537 136.334c-3.729-.663-6.63-3.564-7.376-7.21 0-.166-.331-.166-.331 0-.746 3.646-3.646 6.547-7.376 7.21-.166 0-.166.249 0 .331 3.729.663 6.63 3.564 7.376 7.21 0 .166.331.166.331 0 .746-3.646 3.646-6.547 7.376-7.21.166-.082.166-.331 0-.331z" fill="#318c17" data-original="#fc657e" style="" class=""/></g></g></g><g><g><g><circle cx="153.096" cy="232.6" fill="#f5c84c" r="3.4" data-original="#f5c84c" style=""/></g></g></g><g><g><g><circle cx="82.096" cy="3.4" fill="#87d147" r="3.4" data-original="#87d147" style=""/></g></g></g><g><g><g><path d="m167.996 199.5h-2.3v-2.3c0-1.7-1.4-3.2-3.2-3.2s-3.2 1.4-3.2 3.2v2.3h-2.3c-1.7 0-3.2 1.4-3.2 3.2s1.4 3.2 3.2 3.2h2.3v2.3c0 1.7 1.4 3.2 3.2 3.2s3.2-1.4 3.2-3.2v-2.3h2.3c1.7 0 3.2-1.4 3.2-3.2s-1.4-3.2-3.2-3.2z" fill="#318c17" data-original="#70d6f9" style="" class=""/></g></g></g><g><path d="m45.749 236.587-9.057-25.375 22.834-6.726 6.957 19.492c.45 1.261 1.191 2.399 2.162 3.321l2.347 2.23v-45.382s.418-27.957-16.703-42.776c-.068.102-.365 2.057-2.314 1.802l-33.301-4.351c-1.067-.14-1.829-1.104-1.718-2.175l.014-.137c-11.536 9.36-17.349 33.65-13.061 64.834l2.86 21.582c.99 7.471.939 15.042-.152 22.498l-.752 5.139c-.225 1.549.975 2.937 2.539 2.937h53.301l-12.9-12.246c-1.374-1.291-2.422-2.891-3.056-4.667z" fill="#318c17" data-original="#70d6f9" style="" class=""/></g><g><path d="m20.16 125.945 34.988 4.536c1.2.156 1.997 1.321 1.706 2.495l-2.65 8.675c-.248 1.001-1.207 1.656-2.229 1.522l-33.262-4.346c-1.074-.14-1.848-1.101-1.756-2.18l.924-8.864c.098-1.15 1.135-1.987 2.279-1.838z" fill="#7fc36c" data-original="#9be5f9" style="" class=""/></g><g><path d="m54.859 90.377c.646-2.902 1.309-7.374.42-11.086-.241-1.007.647-1.926 1.664-1.736 5.183.966 17.217 2.108 23.856-6.218 8.451-10.597-14.639-24.05-35.484-21.703-.747.084-1.496.136-2.247.136-4.405-.005-22.452 1.251-29.223 21.673-7.057 21.283 8.094 38.177 10.817 40.987.277.285.648.445 1.045.437 1.701-.032 6.798-.746 15.01-7.122.485-.377.674-1.022.471-1.602-1.047-2.986-3.015-11.077 2.058-15.036 3.883-3.03 7.373-.003 9.136 1.947.787.869 2.223.467 2.477-.677z" fill="#564200" data-original="#754e34" style="" class=""/></g><g><path d="m83.005 94.206c-1.482-1.442-2.232-3.479-2.039-5.538l.003-.032c.502-5.351-.319-10.517-2.182-15.188-6.835 5.999-17.144 4.982-21.84 4.107-1.023-.19-1.907.734-1.665 1.746.885 3.71.222 8.177-.423 11.076-.254 1.143-1.69 1.546-2.476.676-1.763-1.951-5.253-4.977-9.136-1.947-5.07 3.956-3.108 12.039-2.06 15.03.204.582.011 1.236-.477 1.614-8.15 6.325-13.226 7.073-14.962 7.114.283 1.887.201 3.836-.309 5.727l-2.095 7.766 30.334 3.932.481-5.126 2.012 1.064c1.376.728 2.882 1.177 4.432 1.323l10.447.98c2.2.206 4.245-1.154 4.904-3.264l1.047-5.11c.235-1.15.23-2.335-.016-3.483l-.35-1.633c-.123-.413.039-.858.398-1.096l1.274-.844c.247-.164.406-.43.434-.725l.277-2.956c.1-1.066.812-1.976 1.823-2.33l7.337-2.569c1.835-.643 2.354-2.991.961-4.347z" fill="#f9d0b4" data-original="#f9d0b4" style="" class=""/></g><g><path d="m54.157 127.663c-.424 0-.853-.107-1.247-.334l-8.782-5.064c-1.196-.69-1.606-2.219-.917-3.415.689-1.197 2.217-1.605 3.415-.917l8.782 5.064c1.196.69 1.606 2.219.917 3.415-.463.803-1.304 1.251-2.168 1.251z" fill="#000000" data-original="#000000" style="" class=""/></g><g><path d="m52.242 145.69c-.195 0-.391-.013-.589-.038l-33.264-4.347c-2.406-.314-4.129-2.454-3.923-4.871l.929-8.912c.099-1.177.708-2.321 1.665-3.093.957-.771 2.202-1.12 3.422-.965l34.988 4.536c1.277.165 2.427.87 3.154 1.934.727 1.063.967 2.391.657 3.642-.011.043-.022.087-.036.13l-2.634 8.623c-.532 2-2.341 3.361-4.369 3.361zm-32.746-9.282 32.403 4.233 2.369-7.755-33.946-4.4zm35.331-3.448h.01zm-34.988-4.536h.001zm.534-.43-.002.017c0-.006.001-.012.002-.017z" fill="#000000" data-original="#000000" style="" class=""/></g><g><path d="m25.68 115.366c-1.053 0-2.076-.435-2.815-1.2-3.21-3.313-18.859-20.989-11.392-43.511 7.373-22.235 27.524-23.385 31.571-23.385.595.001 1.263-.038 1.993-.12 15.42-1.74 33.471 4.921 38.625 14.247 2.181 3.946 1.859 8.03-.907 11.499-6.895 8.646-18.678 8.267-24.75 7.37.529 3.73-.063 7.768-.705 10.654-.323 1.453-1.418 2.592-2.858 2.972-1.427.378-2.926-.068-3.913-1.162-3.25-3.599-4.935-2.283-5.743-1.652-4.219 3.293-1.555 11.332-1.237 12.238.56 1.596.04 3.365-1.295 4.402-8.427 6.542-13.954 7.6-16.498 7.648-.026 0-.051 0-.076 0zm17.358-63.096c-4.784 0-20.683 1.454-26.819 19.96-6.334 19.102 6.443 34.42 9.906 38.109 1.642-.155 5.821-1.088 12.458-6.108-1.846-5.812-1.944-13.139 3.126-17.095 1.695-1.321 5.964-3.673 11.08.807.533-3.165.559-5.982.059-8.069-.31-1.297.054-2.647.974-3.615.924-.972 2.263-1.403 3.579-1.161 4.503.84 15.607 2.002 21.444-5.318 1.505-1.888 1.646-3.783.44-5.963-4.539-8.214-21.839-13.034-33.69-11.697-.917.101-1.743.165-2.557.15z" fill="#000000" data-original="#000000" style="" class=""/></g><g><path d="m23.462 128.429c-.215 0-.435-.028-.653-.087-1.333-.36-2.122-1.732-1.762-3.065l1.979-7.336c.375-1.39.476-2.845.301-4.327-.162-1.371.818-2.613 2.189-2.775 1.37-.164 2.614.818 2.776 2.189.25 2.117.102 4.208-.439 6.216l-1.979 7.336c-.301 1.114-1.31 1.849-2.412 1.849z" fill="#000000" data-original="#000000" style="" class=""/></g><g><path d="m53.736 132.212c-.078 0-.157-.004-.236-.011-1.375-.129-2.385-1.348-2.256-2.723l.427-4.549c.078-.832.566-1.569 1.301-1.966s1.619-.4 2.357-.011l2.012 1.064c1.092.577 2.269.929 3.495 1.043l10.449.98c.992.101 1.915-.501 2.251-1.423l1.016-4.964c.167-.816.164-1.643-.011-2.456l-.335-1.565c-.374-1.439.197-2.941 1.445-3.771l.67-.443.209-2.231c.191-2.033 1.56-3.782 3.487-4.456l7.336-2.568c.029-.01.062-.021.077-.087.014-.063-.011-.088-.033-.11l-6.134-5.968c-2.035-1.979-3.05-4.736-2.785-7.563.444-4.726-.189-9.33-1.877-13.719-.496-1.288.146-2.734 1.435-3.23 1.29-.497 2.736.146 3.231 1.436 1.968 5.114 2.706 10.48 2.193 15.948-.126 1.345.345 2.626 1.29 3.545l6.134 5.969c1.28 1.245 1.813 3.029 1.429 4.771-.385 1.743-1.621 3.137-3.306 3.728l-7.338 2.568c-.089.031-.151.111-.16.204l-.277 2.956c-.1 1.053-.661 1.99-1.541 2.574l-.409.271.149.695c.32 1.492.327 3.01.02 4.508l-1.046 5.11c-.017.082-.038.163-.063.244-1.005 3.217-4.165 5.313-7.524 5.007l-10.446-.98c-1.405-.131-2.766-.464-4.064-.993l-.084.899c-.123 1.295-1.213 2.267-2.488 2.267z" fill="#000000" data-original="#000000" style="" class=""/></g><g><path d="m49.976 160.565c-2.672-9.07-12.191-14.257-21.259-11.585-9.07 2.672-14.256 12.19-11.585 21.259l13.559 39.4c.584 1.696 2.399 2.633 4.119 2.126l26.403-7.777c1.834-.54 2.846-2.501 2.224-4.309z" fill="#7fc36c" data-original="#9be5f9" style="" class=""/></g><g><path d="m33.854 214.406c-2.438 0-4.693-1.53-5.527-3.951l-13.559-39.401c-.012-.035-.024-.071-.034-.107-1.481-5.026-.916-10.329 1.592-14.932 2.507-4.602 6.657-7.951 11.684-9.433 10.359-3.052 21.268 2.876 24.348 13.221l13.442 39.063c.518 1.504.396 3.176-.333 4.589s-2.022 2.482-3.547 2.932l-26.403 7.778c-.554.163-1.113.241-1.663.241zm-14.339-44.925 13.54 39.346c.149.433.616.676 1.049.541l26.402-7.777c.305-.09.455-.307.518-.428s.152-.369.049-.67l-13.46-39.115c-.012-.035-.024-.071-.034-.107-2.278-7.732-10.42-12.175-18.155-9.892-3.746 1.104-6.838 3.6-8.707 7.028-1.86 3.413-2.286 7.345-1.202 11.074z" fill="#000000" data-original="#000000" style="" class=""/></g><g><path d="m61.58 256h-53.176c-1.472 0-2.869-.639-3.832-1.753s-1.393-2.589-1.18-4.046l.752-5.139c1.058-7.229 1.107-14.566.147-21.809l-2.86-21.582c-4.216-30.655 1.026-56.283 13.681-66.87 1.06-.884 2.635-.745 3.521.313.886 1.06.746 2.636-.313 3.522-11.174 9.347-15.858 33.827-11.934 62.365l2.862 21.595c1.021 7.7.968 15.503-.157 23.189l-.752 5.139 53.241.076c1.381 0 2.5 1.119 2.5 2.5s-1.119 2.5-2.5 2.5z" fill="#000000" data-original="#000000" style="" class=""/></g><g><path d="m70.993 231.719c-1.381 0-2.5-1.119-2.5-2.5v-45.072c.004-.3.176-26.6-15.457-40.55-1.03-.919-1.12-2.5-.201-3.53.918-1.03 2.5-1.121 3.53-.2 17.356 15.488 17.145 43.147 17.127 44.317v45.035c.001 1.381-1.118 2.5-2.499 2.5z" fill="#000000" data-original="#000000" style="" class=""/></g><g><path d="m93.804 256h-32.099c-.641 0-1.257-.246-1.721-.687l-12.9-12.246c-1.647-1.548-2.926-3.501-3.689-5.641l-8.81-24.682c-.464-1.301.214-2.731 1.514-3.195 1.3-.468 2.73.213 3.195 1.514l8.81 24.683c.498 1.396 1.333 2.671 2.413 3.686l12.186 11.568h27.265l-23.044-21.889c-1.249-1.187-2.215-2.671-2.794-4.293l-6.697-18.764c-.464-1.301.214-2.731 1.514-3.195 1.301-.466 2.731.213 3.195 1.514l6.697 18.764c.317.888.846 1.7 1.529 2.35l25.825 24.53c1.035.983 1.362 2.476.833 3.801-.53 1.326-1.795 2.182-3.222 2.182z" fill="#000000" data-original="#000000" style="" class=""/></g><g><path d="m210.251 236.655 9.057-25.375-22.834-6.726-6.957 19.492c-.45 1.261-1.191 2.399-2.162 3.321l-2.347 2.23v-45.382s-.418-27.957 16.703-42.776c.068.102.365 2.057 2.314 1.802l33.301-4.351c1.067-.14 1.829-1.104 1.718-2.175l-.014-.137c11.536 9.36 17.349 33.65 13.061 64.834l-2.86 21.582c-.99 7.471-.939 15.042.152 22.498l.752 5.139c.227 1.548-.973 2.936-2.538 2.936h-53.301l12.9-12.246c1.373-1.29 2.421-2.89 3.055-4.666z" fill="#318c17" data-original="#fc657e" style="" class=""/></g><g><path d="m235.84 126.013-34.988 4.536c-1.2.156-1.997 1.321-1.706 2.495l2.65 8.675c.248 1.001 1.207 1.656 2.229 1.522l33.262-4.346c1.074-.14 1.848-1.101 1.756-2.18l-.924-8.864c-.098-1.15-1.135-1.987-2.279-1.838z" fill="#ddb221" data-original="#f98fa6" style="" class=""/></g><g><path d="m201.141 90.445c-.646-2.902-1.309-7.374-.42-11.086.241-1.007-.647-1.926-1.664-1.736-5.183.966-17.217 2.108-23.856-6.218-8.451-10.597 14.639-24.05 35.484-21.703.747.084 1.496.136 2.247.136 4.405-.005 22.452 1.251 29.223 21.673 7.057 21.283-8.094 38.177-10.817 40.987-.277.285-.648.445-1.045.437-1.701-.032-6.798-.746-15.01-7.122-.485-.377-.674-1.022-.471-1.602 1.047-2.986 3.015-11.077-2.058-15.036-3.883-3.03-7.373-.003-9.136 1.947-.787.869-2.223.467-2.477-.677z" fill="#564200" data-original="#754e34" style="" class=""/></g><g><path d="m172.995 94.274c1.482-1.442 2.232-3.479 2.039-5.538l-.003-.032c-.502-5.351.319-10.517 2.182-15.188 6.835 5.999 17.144 4.982 21.84 4.107 1.023-.19 1.907.734 1.665 1.746-.885 3.71-.222 8.177.423 11.076.254 1.143 1.69 1.546 2.476.676 1.763-1.951 5.253-4.977 9.136-1.947 5.07 3.956 3.108 12.039 2.06 15.03-.204.582-.011 1.236.477 1.614 8.15 6.325 13.226 7.073 14.962 7.114-.283 1.887-.201 3.836.309 5.727l2.095 7.766-30.334 3.932-.481-5.126-2.012 1.064c-1.376.728-2.882 1.177-4.432 1.323l-10.447.98c-2.2.206-4.245-1.154-4.904-3.264l-1.047-5.11c-.235-1.15-.23-2.335.016-3.483l.35-1.633c.123-.413-.039-.858-.398-1.096l-1.274-.844c-.247-.164-.406-.43-.434-.725l-.277-2.956c-.1-1.066-.812-1.976-1.823-2.33l-7.337-2.569c-1.835-.643-2.354-2.991-.961-4.347z" fill="#f9d0b4" data-original="#f9d0b4" style="" class=""/></g><g><path d="m201.842 127.731c-.864 0-1.705-.448-2.168-1.251-.689-1.196-.279-2.725.917-3.415l8.782-5.065c1.195-.689 2.725-.279 3.415.917.689 1.196.279 2.725-.917 3.415l-8.782 5.065c-.394.227-.823.334-1.247.334z" fill="#000000" data-original="#000000" style="" class=""/></g><g><path d="m203.755 145.758c-2.026 0-3.834-1.36-4.366-3.361l-2.634-8.622c-.014-.043-.025-.087-.036-.131-.309-1.251-.069-2.577.657-3.641.727-1.063 1.876-1.768 3.152-1.935l34.99-4.535c1.22-.156 2.466.194 3.423.965s1.564 1.916 1.669 3.141l.919 8.817c.21 2.465-1.514 4.604-3.92 4.918l-33.261 4.345c-.199.026-.397.039-.593.039zm-2.023-12.803 2.369 7.754 32.403-4.233-.826-7.921zm33.901-4.846c0 .003 0 .006.001.009zm.207-2.096h.01z" fill="#000000" data-original="#000000" style="" class=""/></g><g><path d="m230.318 115.435c-.025 0-.051 0-.075 0-2.543-.049-8.069-1.106-16.495-7.647-1.335-1.037-1.856-2.807-1.297-4.403.318-.907 2.982-8.947-1.236-12.238-.81-.631-2.494-1.945-5.743 1.652-.988 1.093-2.486 1.541-3.913 1.162-1.438-.379-2.534-1.518-2.858-2.971v-.001c-.643-2.887-1.233-6.924-.704-10.654-6.077.896-17.858 1.273-24.752-7.371-2.766-3.469-3.088-7.553-.906-11.499 5.154-9.325 23.209-15.982 38.625-14.247.712.081 1.348.12 1.946.12h.042c4.034 0 24.201 1.145 31.576 23.386 7.465 22.515-8.183 40.197-11.395 43.514-.741.763-1.763 1.197-2.815 1.197zm-12.902-11.136c6.64 5.021 10.819 5.954 12.459 6.108 3.462-3.69 16.238-19.015 9.906-38.11-6.137-18.508-22.046-19.96-26.821-19.96-.016.001-.033 0-.051 0-.789 0-1.61-.05-2.508-.151-11.854-1.339-29.149 3.484-33.688 11.697-1.205 2.18-1.065 4.075.44 5.963 5.836 7.319 16.942 6.16 21.443 5.319 1.319-.243 2.655.188 3.58 1.16.921.969 1.285 2.32.974 3.616-.499 2.086-.475 4.903.059 8.069 5.116-4.48 9.385-2.131 11.081-.807 5.07 3.956 4.973 11.283 3.126 17.096zm-13.836-14.401c0 .001 0 .002.001.003-.001-.001-.001-.002-.001-.003z" fill="#000000" data-original="#000000" style="" class=""/></g><g><path d="m202.261 132.243c-1.275 0-2.364-.971-2.486-2.267l-.081-.862c-1.296.528-2.657.861-4.063.993l-10.447.98c-3.354.305-6.52-1.792-7.523-5.008-.024-.08-.046-.161-.063-.243l-1.047-5.11c-.307-1.498-.3-3.016.021-4.509l.148-.694-.407-.271c-.881-.581-1.444-1.521-1.542-2.578l-.277-2.952c-.009-.093-.071-.173-.159-.204l-7.338-2.569c-1.686-.59-2.921-1.982-3.307-3.727-.385-1.743.149-3.526 1.429-4.771l6.135-5.969c.945-.92 1.416-2.2 1.293-3.513-.518-5.508.224-10.882 2.198-16.005.497-1.288 1.942-1.928 3.232-1.434 1.288.497 1.93 1.944 1.434 3.232-1.695 4.396-2.33 9.007-1.889 13.707.269 2.858-.747 5.615-2.782 7.596l-6.135 5.969c-.021.021-.047.046-.032.109.014.063.047.075.076.086l7.337 2.569c1.926.674 3.294 2.422 3.486 4.455l.209 2.232.668.442c1.249.825 1.821 2.328 1.446 3.771l-.335 1.564c-.175.814-.178 1.641-.011 2.457l1.017 4.964c.337.922 1.276 1.527 2.251 1.423l10.447-.98c1.229-.115 2.405-.466 3.496-1.043l2.012-1.064c.738-.39 1.623-.386 2.357.011s1.223 1.134 1.301 1.966l.424 4.512c.129 1.374-.881 2.594-2.256 2.723-.08.008-.159.012-.237.012zm-24.676-16.145c.002 0 .003.001.004.002zm2.162-3.891.001.004c0-.001 0-.002-.001-.004zm-.678-1.125.005.004c-.001-.001-.003-.002-.005-.004z" fill="#000000" data-original="#000000" style="" class=""/></g><g><path d="m232.472 128.251c-1.102 0-2.111-.734-2.412-1.85l-1.913-7.091c-.564-2.097-.701-4.277-.404-6.483.185-1.368 1.432-2.337 2.811-2.145 1.368.184 2.329 1.442 2.145 2.811-.207 1.545-.114 3.063.277 4.516l1.913 7.09c.359 1.333-.43 2.705-1.763 3.065-.219.059-.439.087-.654.087z" fill="#000000" data-original="#000000" style="" class=""/></g><g><path d="m206.024 160.633c2.672-9.07 12.191-14.257 21.259-11.585 9.07 2.672 14.256 12.19 11.585 21.259l-13.559 39.4c-.584 1.696-2.399 2.633-4.119 2.126l-26.403-7.777c-1.834-.54-2.846-2.501-2.224-4.309z" fill="#ddb221" data-original="#f98fa6" style="" class=""/></g><g><path d="m222.146 214.474c-.55 0-1.109-.078-1.663-.241l-26.403-7.777c-1.525-.45-2.819-1.518-3.548-2.932-.729-1.413-.852-3.085-.334-4.589l13.443-39.063c1.489-5.003 4.832-9.131 9.417-11.629 4.602-2.508 9.903-3.073 14.932-1.592 5.026 1.48 9.176 4.83 11.684 9.433 2.508 4.602 3.073 9.904 1.593 14.931-.011.036-.022.072-.034.107l-13.56 39.4c-.834 2.42-3.09 3.951-5.527 3.952zm.279-63.63c-2.411 0-4.798.603-6.974 1.789-3.43 1.868-5.926 4.96-7.029 8.706-.011.036-.022.072-.034.107l-13.461 39.115c-.104.3-.015.548.049.669.063.122.213.338.517.428l26.403 7.777c.441.132.9-.108 1.049-.541l13.541-39.345c1.084-3.73.658-7.662-1.202-11.075-1.868-3.429-4.96-5.925-8.706-7.027-1.37-.403-2.766-.603-4.153-.603zm-16.402 9.789h.01z" fill="#000000" data-original="#000000" style="" class=""/></g><g><path d="m185.007 231.708c-1.381 0-2.5-1.119-2.5-2.5v-44.994c-.018-1.127-.228-28.665 17.012-44.175 1.026-.924 2.607-.841 3.53.187.924 1.026.84 2.606-.187 3.53-15.53 13.974-15.359 40.159-15.355 40.423v45.029c0 1.381-1.119 2.5-2.5 2.5z" fill="#000000" data-original="#000000" style="" class=""/></g><g><path d="m247.596 256.068h-52.658c-1.381 0-2.5-1.119-2.5-2.5s1.119-2.5 2.5-2.5h52.658l-.688-5.214c-1.125-7.688-1.178-15.489-.157-23.188l2.86-21.582c3.886-28.259-.698-52.653-11.675-62.16-1.044-.904-1.157-2.482-.253-3.526.904-1.043 2.483-1.158 3.526-.253 12.41 10.748 17.527 36.271 13.356 66.608l-2.858 21.569c-.96 7.241-.91 14.578.147 21.808l.752 5.14c.213 1.457-.217 2.932-1.18 4.046s-2.358 1.752-3.83 1.752z" fill="#000000" data-original="#000000" style="" class=""/></g><g><path d="m194.295 256.068h-32.099c-1.428 0-2.692-.857-3.222-2.184-.529-1.325-.202-2.817.834-3.801l25.824-24.529c.684-.65 1.213-1.463 1.529-2.35l6.722-18.834c.465-1.301 1.894-1.98 3.195-1.514 1.3.464 1.978 1.895 1.514 3.195l-6.722 18.833c-.578 1.62-1.545 3.105-2.794 4.293l-23.045 21.89h27.265l12.176-11.56c1.09-1.022 1.925-2.297 2.424-3.694l8.81-24.684c.465-1.301 1.894-1.979 3.195-1.514 1.3.464 1.978 1.895 1.514 3.194l-8.81 24.685c-.766 2.142-2.045 4.095-3.7 5.648l-12.889 12.237c-.464.443-1.08.689-1.721.689z" fill="#000000" data-original="#000000" style="" class=""/></g><g><path d="m128.001 80.381c-16.525.001-30.722-9.488-37.05-24.764-6.363-15.36-3.058-32.159 8.625-43.843 7.593-7.592 17.687-11.774 28.424-11.774 16.522 0 30.718 9.492 37.047 24.771 6.364 15.366 3.061 32.169-8.623 43.853-7.579 7.579-17.674 11.755-28.423 11.757zm-.001-75.381c-9.401 0-18.241 3.661-24.889 10.31-10.225 10.226-13.115 24.937-7.541 38.393 5.54 13.372 17.966 21.679 32.43 21.678 9.414-.002 18.253-3.657 24.889-10.292 10.226-10.227 13.114-24.942 7.538-38.404-5.539-13.375-17.965-21.685-32.427-21.685z" fill="#000000" data-original="#000000" style="" class=""/></g><g><path d="m138.346 60.534c-1.09 0-2.115-.426-2.887-1.197l-7.459-7.459-7.461 7.46c-.769.771-1.794 1.196-2.885 1.196s-2.116-.426-2.887-1.197l-5.915-5.915c-1.591-1.591-1.591-4.18 0-5.771l7.461-7.461-7.461-7.461c-1.59-1.592-1.59-4.18-.001-5.771l5.918-5.917c1.591-1.592 4.18-1.592 5.771 0l7.46 7.462 7.461-7.461c1.589-1.592 4.18-1.592 5.771 0l5.917 5.916c1.59 1.592 1.59 4.18.002 5.771l-7.463 7.462 7.461 7.461c1.591 1.591 1.591 4.18 0 5.771l-5.917 5.916c-.77.769-1.795 1.195-2.886 1.195zm-25.309-9.998 4.616 4.616 7.461-7.46c1.591-1.592 4.18-1.591 5.77-.001l7.462 7.461 4.616-4.616-7.461-7.461c-.771-.771-1.195-1.795-1.195-2.886 0-1.09.425-2.114 1.195-2.885l7.462-7.461-4.617-4.616-7.461 7.461c-1.592 1.593-4.181 1.591-5.771 0l-7.461-7.461-4.617 4.616 7.461 7.461c.771.771 1.195 1.795 1.195 2.885 0 1.091-.424 2.115-1.195 2.886zm30.576.651h.01z" fill="#000000" data-original="#000000" style="" class=""/></g></g></g></g></svg>
