<?xml version="1.0"?>
<svg xmlns="http://www.w3.org/2000/svg" xmlns:xlink="http://www.w3.org/1999/xlink" xmlns:svgjs="http://svgjs.com/svgjs" version="1.1" width="512" height="512" x="0" y="0" viewBox="0 0 512 512" style="enable-background:new 0 0 512 512" xml:space="preserve" class=""><g><g xmlns="http://www.w3.org/2000/svg"><path d="m330.399 493.4h-148.798l30-121h88.798z" fill="#e9e9e9" data-original="#dfe7f4" style="" class=""/><path d="m300.399 372.4 30 121h-74.399v-121z" fill="#c0c9d7" data-original="#c7cfe1" style="" class=""/><path d="m0 0v391h512v-391z" fill="#a3a8b1" data-original="#47568c" style="" class=""/><path d="m256 0h256v391h-256z" fill="#a3a8b1" data-original="#29376d" style="" class=""/><path d="m121 482h270v30h-270z" fill="#f6faff" data-original="#f0f7ff" style="" class=""/><path d="m256 482h135v30h-135z" fill="#e9e9e9" data-original="#dfe7f4" style="" class=""/><path d="m256 30h-226v331h30l30-30h166 165l31 30h30v-331z" fill="#318c17" data-original="#91e6a9" style="" class=""/><path d="m452 361h30v-331h-226v301h165z" fill="#318c17" data-original="#26bfa6" style="" class=""/><path d="m331 60h-75-196v301h196 196v-181z" fill="#f6faff" data-original="#f0f7ff" style="" class=""/><path d="m452 180-121-120h-75v301h196z" fill="#e9e9e9" data-original="#dfe7f4" style="" class=""/><path d="m382.211 225-21.211-21.211-30 30-30-30-21.211 21.211 30 30-30 30 21.211 21.211 30-30 30 30 21.211-21.211-30-30z" fill="#ffcd26" data-original="#ff3377" style="" class=""/><path d="m166 306.211-51.211-51.211 21.211-21.211 30 30 60-60 21.211 21.211z" fill="#318c17" data-original="#91e6a9" style="" class=""/><path d="m352.211 60h-21.211v120h121v-21.211z" fill="#c0c9d7" data-original="#c7cfe1" style="" class=""/></g></g></svg>
